<svg id="Layer_1" data-name="Layer 1" xmlns="http://www.w3.org/2000/svg" viewBox="0 0 300 300">
  <defs>
    <style>.cls-1{fill:#5082cd;}.cls-2{fill:#ffc355;}.cls-3{fill:#fff;}</style>
  </defs>
  <title>Logo 1950Labs Cuadrado</title>
  <rect class="cls-1" width="300" height="300" />
  <polygon class="cls-2"
    points="37.4 85.94 27.36 85.94 27.36 27.36 87.3 27.36 87.3 37.41 37.4 37.41 37.4 85.94" />
  <polygon class="cls-3"
    points="272.63 272.64 212.7 272.64 212.7 262.6 262.59 262.6 262.59 214.06 272.63 214.06 272.63 272.64" />
  <polygon class="cls-3"
    points="200.14 272.64 27.36 272.64 27.36 98.5 37.4 98.5 37.4 262.6 200.14 262.6 200.14 272.64" />
  <polygon class="cls-3"
    points="272.63 201.51 262.59 201.51 262.59 37.41 99.85 37.41 99.85 27.37 272.63 27.37 272.63 201.51" />
  <path class="cls-3"
    d="M164.41,189.16c0,12-5.5,18.51-17.09,18.51-11,0-16.69-6.51-16.69-17.91v-1.83h10.58v2.54c0,5.09,2.24,7,5.8,7,4,0,6.21-1.93,6.21-8.75v-13c-1.94,4.06-5.4,6.3-10.38,6.3-8.24,0-12.41-5.8-12.41-16.27v-13c0-11.4,6-17.91,17-17.91s17,6.51,17,17.91Zm-11.19-24.32V152c0-5.08-2.24-6.92-5.8-6.92s-5.8,1.84-5.8,6.92v12.82c0,5.09,2.24,7,5.8,7s5.8-1.93,5.8-7" />
  <path class="cls-3"
    d="M181.82,183.86v6.61c0,5.09,2.24,6.93,5.8,6.93s5.79-1.84,5.79-6.93V174.8c0-5.08-2.24-7-5.79-7s-5.8,1.93-5.8,7V177H171.24l2-41.31h29.5v10.17H183.34l-.91,17c2-3.35,5.29-5.19,9.77-5.19,8.23,0,12.41,5.81,12.41,16.28v15.87c0,11.39-5.7,17.91-16.69,17.91s-16.68-6.52-16.68-17.91v-5.9Z" />
  <path class="cls-3"
    d="M211.44,152.74c0-11.4,6-17.91,17-17.91s17,6.51,17,17.91v37c0,11.39-6,17.91-17,17.91s-17-6.52-17-17.91Zm11.18,37.73c0,5.09,2.25,7,5.8,7s5.8-1.93,5.8-7V152c0-5.08-2.24-7-5.8-7s-5.8,1.94-5.8,7Z" />
  <polygon class="cls-3"
    points="169.12 212.73 174.57 212.73 174.57 240.63 183.55 240.63 183.55 245.28 169.12 245.28 169.12 212.73" />
  <path class="cls-3"
    d="M204.83,245.28h-5.51l-.94-5.91h-6.69l-.94,5.91h-5l5.56-32.55h8ZM192.38,235h5.26L195,218.5Z" />
  <path class="cls-3"
    d="M224.93,220.22v1.16c0,3.35-1.1,5.49-3.53,6.56,2.93,1.06,4.07,3.53,4.07,7v2.65c0,5-2.83,7.72-8.28,7.72h-8.58V212.73h8.23c5.65,0,8.09,2.47,8.09,7.49m-10.87-2.84V226h2.13c2,0,3.28-.83,3.28-3.44v-1.81c0-2.33-.84-3.35-2.78-3.35Zm0,13.25v10h3.13c1.83,0,2.82-.79,2.82-3.21v-2.84c0-3-1-4-3.52-4Z" />
  <path class="cls-3"
    d="M237.33,212.36c5.3,0,8,3,8,8.18v1H240.2v-1.35c0-2.33-1-3.21-2.72-3.21s-2.73.88-2.73,3.21c0,6.69,10.66,7.95,10.66,17.24,0,5.22-2.78,8.19-8.13,8.19s-8.14-3-8.14-8.19v-2h5.16v2.32c0,2.33,1.09,3.17,2.83,3.17s2.83-.84,2.83-3.17c0-6.69-10.67-7.95-10.67-17.25,0-5.2,2.73-8.18,8-8.18" />
  <path class="cls-3"
    d="M112.42,152.54H100.77v-7.9a28.81,28.81,0,0,0,7.65-.82,9.64,9.64,0,0,0,4.61-2.68,16.52,16.52,0,0,0,3-5.42h7.5v70.93H112.42Z" />
</svg>
