<svg width="14" height="15" viewBox="0 0 14 15" fill="none" xmlns="http://www.w3.org/2000/svg">
<path fill-rule="evenodd" clip-rule="evenodd" d="M11.5326 6.34386L7.3859 8.82181L7.3859 8.05474L11.5326 5.57679L11.5326 6.34386ZM11.5326 10.0288L7.3859 12.5067V11.7397L11.5326 9.26172V10.0288ZM7.3859 9.89728L10.388 8.04194V8.80902L7.3859 10.6644V9.89728ZM12.2467 3.40354L7.39746 0.718285C6.8718 0.427238 6.22414 0.427238 5.69863 0.718285L0.849414 3.40354C0.323756 3.69458 0 4.23246 0 4.81469L0 10.1853C0 10.7673 0.323756 11.3055 0.849414 11.5964L5.69863 14.2816C6.22414 14.5728 6.8718 14.5728 7.39746 14.2816L12.2467 11.5964C12.7723 11.3055 13.0961 10.7673 13.0961 10.1853L13.0961 4.81469C13.0961 4.23246 12.7723 3.69458 12.2467 3.40354Z" fill="white"/>
</svg>
